<svg width="1320" height="567" viewBox="0 0 1320 567" fill="none" xmlns="http://www.w3.org/2000/svg">
<g clip-path="url(#clip0_1041_2565)">
<rect width="1320" height="567" fill="#FCFCFC"/>
<path d="M-10.9459 -37.3095C69.5637 -40.1132 148.08 -11.9158 208.411 41.4681C268.741 94.8519 306.287 169.351 313.304 249.604" stroke="url(#paint0_linear_1041_2565)"/>
<path d="M1290.53 300.248C1316.84 397.92 1312.47 501.322 1278.02 596.427" stroke="url(#paint1_linear_1041_2565)"/>
<path d="M555.298 -36.6222C443.836 27.6265 361.906 132.901 326.996 256.727" stroke="url(#paint2_linear_1041_2565)"/>
<g filter="url(#filter0_f_1041_2565)">
<ellipse cx="129.657" cy="605.309" rx="127.65" ry="213.635" transform="rotate(-47.6073 129.657 605.309)" fill="url(#paint3_linear_1041_2565)"/>
</g>
<g filter="url(#filter1_f_1041_2565)" style="mix-blend-mode:luminosity">
<ellipse cx="178.726" cy="491.71" rx="67.4504" ry="248.982" transform="rotate(-65.7646 178.726 491.71)" fill="white"/>
</g>
<g filter="url(#filter2_f_1041_2565)">
<ellipse cx="1308.11" cy="65.3813" rx="89.6013" ry="133.43" transform="rotate(-36.1967 1308.11 65.3813)" fill="url(#paint4_linear_1041_2565)"/>
</g>
<g opacity="0.15">
<path d="M311.595 298.127C321.697 302.791 330.957 308.764 338.563 315.621L338.563 315.62C346.133 322.461 351.802 329.885 355.069 337.228C358.318 344.61 359.075 351.67 357.343 357.765C355.557 363.874 351.323 368.963 344.947 372.459L344.946 372.46C344.601 372.651 344.253 372.85 343.908 373.048C343.565 373.245 343.225 373.44 342.89 373.626C336.728 376.941 329.268 379.059 321.547 380.997C313.849 382.928 305.884 384.682 298.809 387.272L298.809 387.273C297.719 387.674 296.554 388.071 295.424 388.519C289.295 390.744 285.66 395.202 285.582 400.903C285.488 406.584 288.8 412.935 294.7 418.588C298.604 422.348 303.506 425.632 308.906 428.218L308.912 428.221C310.806 429.095 312.645 429.99 314.527 430.905L314.533 430.908C328.643 437.56 343.281 442.55 357.997 447.287C372.723 452.027 387.518 456.51 401.988 462.154L401.989 462.154C403.22 462.631 404.443 463.103 405.665 463.575C406.887 464.047 408.109 464.518 409.34 464.994C422.101 469.988 434.517 476.007 446.174 482.936L446.13 482.953L447.017 483.491C459.953 491.344 469.812 501.489 474.629 511.689C479.441 521.877 478.831 531.294 473.033 538.123L473.032 538.124C467.264 544.962 456.608 548.744 443.22 548.566C429.846 548.388 414.855 544.223 401.36 536.984L401.347 536.977C398.879 535.747 396.379 534.408 393.879 533.115L393.88 533.115C355.879 512.995 320.728 489.402 290.051 463.409L290.052 463.409C277.38 452.615 262.368 443.097 246.072 435.667C229.873 428.236 212.856 422.967 196.29 420.31C156.423 413.923 115.501 402.63 75.5237 386.892L75.5228 386.892C72.9117 385.87 70.242 384.776 67.6808 383.732L67.6706 383.728L67.6596 383.724C52.8083 378.428 39.2243 369.723 29.9433 359.489L29.9428 359.488L29.0849 358.529C20.3802 348.605 16.5172 338.145 18.0692 329.398C19.7574 320.406 27.0767 313.715 38.6894 310.965L38.6916 310.965C50.2954 308.158 65.2129 309.54 80.0287 314.819L80.0379 314.823C93.3087 319.247 106.302 324.877 118.709 331.478L118.712 331.479C121.016 332.681 123.353 333.898 125.672 335.153L125.674 335.153C139.334 342.449 152.328 350.737 165.487 358.806C178.64 366.871 191.95 374.713 206.211 381.088L206.214 381.089C207.173 381.509 208.122 381.924 209.071 382.339C210.019 382.754 210.968 383.169 211.926 383.588L211.926 383.587C217.383 386.059 223.096 387.581 228.52 388.13L228.52 388.132C233.986 388.699 238.956 388.189 242.95 386.686L242.954 386.685C246.961 385.144 249.928 382.696 251.434 379.432C252.956 376.136 252.937 372.309 251.529 368.309L251.526 368.302C251.117 367.192 250.707 366.081 250.298 364.971C247.766 357.969 243.978 350.8 240.527 343.736C237.065 336.648 233.94 329.658 232.665 322.939L232.664 322.932C232.587 322.551 232.509 322.17 232.431 321.789L232.199 320.645C230.838 313.579 232.059 307.15 235.699 301.898C239.344 296.639 245.323 292.685 253.163 290.421C261.044 288.173 270.467 287.67 280.659 289.029L280.661 289.029C290.908 290.367 301.496 293.465 311.595 298.127Z" fill="white" fill-opacity="0.8" stroke="url(#paint5_linear_1041_2565)"/>
<path d="M195.591 459.686C207.076 461.916 218.77 466.489 229.139 472.744C239.547 479.016 248.176 486.713 253.963 494.87C257.772 500.285 260.247 505.756 261.201 510.954L261.202 510.957C262.191 516.166 261.603 520.945 259.651 525.175L259.476 525.554L259.477 525.554C252.152 540.324 244.826 555.094 237.502 569.863L237.501 569.864C233.435 578.089 223.828 583.417 210.611 584.591C197.404 585.764 181.762 582.628 167.029 575.873C152.374 569.154 139.879 559.301 132.322 548.635C124.779 537.926 122.755 527.234 126.56 518.894L126.56 518.893C129.977 511.392 133.384 503.886 136.791 496.381C140.198 488.876 143.605 481.371 147.021 473.87L147.022 473.868L147.205 473.473C149.145 469.412 152.459 466.013 156.947 463.428L156.947 463.427C161.562 460.797 167.352 459.095 174.016 458.422L174.017 458.424C180.623 457.772 187.964 458.23 195.592 459.687L195.591 459.686Z" fill="white" fill-opacity="0.8" stroke="url(#paint6_linear_1041_2565)"/>
</g>
<g opacity="0.24">
<path d="M312.595 277.127C322.697 281.791 331.957 287.764 339.563 294.621L339.563 294.62C347.133 301.461 352.802 308.885 356.069 316.228C359.318 323.61 360.075 330.67 358.343 336.765C356.557 342.874 352.323 347.963 345.947 351.459L345.946 351.46C345.601 351.651 345.253 351.85 344.908 352.048C344.565 352.245 344.225 352.44 343.89 352.626C337.728 355.941 330.268 358.059 322.547 359.997C314.849 361.928 306.884 363.682 299.809 366.272L299.809 366.273C298.719 366.674 297.554 367.071 296.424 367.519C290.295 369.744 286.66 374.202 286.582 379.903C286.488 385.584 289.8 391.935 295.7 397.588C299.604 401.348 304.506 404.632 309.906 407.218L309.912 407.221C311.806 408.095 313.645 408.99 315.527 409.905L315.533 409.908C329.643 416.56 344.281 421.55 358.997 426.287C373.723 431.027 388.518 435.51 402.988 441.154L402.989 441.154C404.22 441.631 405.443 442.103 406.665 442.575C407.887 443.047 409.109 443.518 410.34 443.994C423.101 448.988 435.517 455.007 447.174 461.936L447.13 461.953L448.017 462.491C460.953 470.344 470.812 480.489 475.629 490.689C480.441 500.877 479.831 510.294 474.033 517.123L474.032 517.124C468.264 523.962 457.608 527.744 444.22 527.566C430.846 527.388 415.855 523.223 402.36 515.984L402.347 515.977C399.879 514.747 397.379 513.408 394.879 512.115L394.88 512.115C356.879 491.995 321.728 468.402 291.051 442.409L291.052 442.409C278.38 431.615 263.368 422.097 247.072 414.667C230.873 407.236 213.856 401.967 197.29 399.31C157.423 392.923 116.501 381.63 76.5237 365.892L76.5228 365.892C73.9117 364.87 71.242 363.776 68.6808 362.732L68.6706 362.728L68.6596 362.724C53.8083 357.428 40.2243 348.723 30.9433 338.489L30.9428 338.488L30.0849 337.529C21.3802 327.605 17.5172 317.145 19.0692 308.398C20.7574 299.406 28.0767 292.715 39.6894 289.965L39.6916 289.965C51.2954 287.158 66.2129 288.54 81.0287 293.819L81.0379 293.823C94.3087 298.247 107.302 303.877 119.709 310.478L119.712 310.479C122.016 311.681 124.353 312.898 126.672 314.153L126.674 314.153C140.334 321.449 153.328 329.737 166.487 337.806C179.64 345.871 192.95 353.713 207.211 360.088L207.214 360.089C208.173 360.509 209.122 360.924 210.071 361.339C211.019 361.754 211.968 362.169 212.926 362.588L212.926 362.587C218.383 365.059 224.096 366.581 229.52 367.13L229.52 367.132C234.986 367.699 239.956 367.189 243.95 365.686L243.954 365.685C247.961 364.144 250.928 361.696 252.434 358.432C253.956 355.136 253.937 351.309 252.529 347.309L252.526 347.302C252.117 346.192 251.707 345.081 251.298 343.971C248.766 336.969 244.978 329.8 241.527 322.736C238.065 315.648 234.94 308.658 233.665 301.939L233.664 301.932C233.587 301.551 233.509 301.17 233.431 300.789L233.199 299.645C231.838 292.579 233.059 286.15 236.699 280.898C240.344 275.639 246.323 271.685 254.163 269.421C262.044 267.173 271.467 266.67 281.659 268.029L281.661 268.029C291.908 269.367 302.496 272.465 312.595 277.127Z" fill="white" fill-opacity="0.8" stroke="url(#paint7_linear_1041_2565)"/>
<path d="M196.591 438.686C208.076 440.916 219.77 445.489 230.139 451.744C240.547 458.016 249.176 465.713 254.963 473.87C258.772 479.285 261.247 484.756 262.201 489.954L262.202 489.957C263.191 495.166 262.603 499.945 260.651 504.175L260.476 504.554L260.477 504.554C253.152 519.324 245.826 534.094 238.502 548.863L238.501 548.864C234.435 557.089 224.828 562.417 211.611 563.591C198.404 564.764 182.762 561.628 168.029 554.873C153.374 548.154 140.879 538.301 133.322 527.635C125.779 516.926 123.755 506.234 127.56 497.894L127.56 497.893C130.977 490.392 134.384 482.886 137.791 475.381C141.198 467.876 144.605 460.371 148.021 452.87L148.022 452.868L148.205 452.473C150.145 448.412 153.459 445.013 157.947 442.428L157.947 442.427C162.562 439.797 168.352 438.095 175.016 437.422L175.017 437.424C181.623 436.772 188.964 437.23 196.592 438.687L196.591 438.686Z" fill="white" fill-opacity="0.8" stroke="url(#paint8_linear_1041_2565)"/>
</g>
<path d="M314.595 250.127C324.697 254.791 333.957 260.764 341.563 267.621L341.563 267.62C349.133 274.461 354.802 281.885 358.069 289.228C361.318 296.61 362.075 303.67 360.343 309.765C358.557 315.874 354.323 320.963 347.947 324.459L347.946 324.46C347.601 324.651 347.253 324.85 346.908 325.048C346.565 325.245 346.225 325.44 345.89 325.626C339.728 328.941 332.268 331.059 324.547 332.997C316.849 334.928 308.884 336.682 301.809 339.272L301.809 339.273C300.719 339.674 299.554 340.071 298.424 340.519C292.295 342.744 288.66 347.202 288.582 352.903C288.488 358.584 291.8 364.935 297.7 370.588C301.604 374.348 306.506 377.632 311.906 380.218L311.912 380.221C313.806 381.095 315.645 381.99 317.527 382.905L317.533 382.908C331.643 389.56 346.281 394.55 360.997 399.287C375.723 404.027 390.518 408.51 404.988 414.154L404.989 414.154C406.22 414.631 407.443 415.103 408.665 415.575C409.887 416.047 411.109 416.518 412.34 416.994C425.101 421.988 437.517 428.007 449.174 434.936L449.13 434.953L450.017 435.491C462.953 443.344 472.812 453.489 477.629 463.689C482.441 473.877 481.831 483.294 476.033 490.123L476.032 490.124C470.264 496.962 459.608 500.744 446.22 500.566C432.846 500.388 417.855 496.223 404.36 488.984L404.347 488.977C401.879 487.747 399.379 486.408 396.879 485.115L396.88 485.115C358.879 464.995 323.728 441.402 293.051 415.409L293.052 415.409C280.38 404.615 265.368 395.097 249.072 387.667C232.873 380.236 215.856 374.967 199.29 372.31C159.423 365.923 118.501 354.63 78.5237 338.892L78.5228 338.892C75.9117 337.87 73.242 336.776 70.6808 335.732L70.6706 335.728L70.6596 335.724C55.8083 330.428 42.2243 321.723 32.9433 311.489L32.9428 311.488L32.0849 310.529C23.3802 300.605 19.5172 290.145 21.0692 281.398C22.7574 272.406 30.0767 265.715 41.6894 262.965L41.6916 262.965C53.2954 260.158 68.2129 261.54 83.0287 266.819L83.0379 266.823C96.3087 271.247 109.302 276.877 121.709 283.478L121.712 283.479C124.016 284.681 126.353 285.898 128.672 287.153L128.674 287.153C142.334 294.449 155.328 302.737 168.487 310.806C181.64 318.871 194.95 326.713 209.211 333.088L209.214 333.089C210.173 333.509 211.122 333.924 212.071 334.339C213.019 334.754 213.968 335.169 214.926 335.588L214.926 335.587C220.383 338.059 226.096 339.581 231.52 340.13L231.52 340.132C236.986 340.699 241.956 340.189 245.95 338.686L245.954 338.685C249.961 337.144 252.928 334.696 254.434 331.432C255.956 328.136 255.937 324.309 254.529 320.309L254.526 320.302C254.117 319.192 253.707 318.081 253.298 316.971C250.766 309.969 246.978 302.8 243.527 295.736C240.065 288.648 236.94 281.658 235.665 274.939L235.664 274.932C235.587 274.551 235.509 274.17 235.431 273.789L235.199 272.645C233.838 265.579 235.059 259.15 238.699 253.898C242.344 248.639 248.323 244.685 256.163 242.421C264.044 240.173 273.467 239.67 283.659 241.029L283.661 241.029C293.908 242.367 304.496 245.465 314.595 250.127Z" fill="white" fill-opacity="0.8" stroke="url(#paint9_linear_1041_2565)"/>
<path d="M198.591 411.686C210.076 413.916 221.77 418.489 232.139 424.744C242.547 431.016 251.176 438.713 256.963 446.87C260.772 452.285 263.247 457.756 264.201 462.954L264.202 462.957C265.191 468.166 264.603 472.945 262.651 477.175L262.476 477.554L262.477 477.554C255.152 492.324 247.826 507.094 240.502 521.863L240.501 521.864C236.435 530.089 226.828 535.417 213.611 536.591C200.404 537.764 184.762 534.628 170.029 527.873C155.374 521.154 142.879 511.301 135.322 500.635C127.779 489.926 125.755 479.234 129.56 470.894L129.56 470.893C132.977 463.392 136.384 455.886 139.791 448.381C143.198 440.876 146.605 433.371 150.021 425.87L150.022 425.868L150.205 425.473C152.145 421.412 155.459 418.013 159.947 415.428L159.947 415.427C164.562 412.797 170.352 411.095 177.016 410.422L177.017 410.424C183.623 409.772 190.964 410.23 198.592 411.687L198.591 411.686Z" fill="white" fill-opacity="0.8" stroke="url(#paint10_linear_1041_2565)"/>
<g filter="url(#filter3_f_1041_2565)" style="mix-blend-mode:luminosity">
<ellipse cx="1230.5" cy="100.478" rx="48.4039" ry="168.798" transform="rotate(-42.9881 1230.5 100.478)" fill="white"/>
</g>
<path d="M537.792 322L564.416 273.104L539.456 227.28H560.448L569.92 246.736C572.096 251.216 574.144 255.824 576.96 261.712H577.6C579.904 255.824 581.824 251.216 583.872 246.736L592.832 227.28H612.8L587.84 274L614.464 322H593.472L582.848 301.008C580.416 296.144 578.24 291.152 575.424 285.392H574.912C572.48 291.152 570.304 296.144 568 301.008L557.888 322H537.792ZM620.082 292.048V278.608H655.026V292.048H620.082ZM675.393 322V227.28H694.337V306.128H732.737V322H675.393ZM750.292 322V250.32H768.98V322H750.292ZM759.764 238.8C753.236 238.8 748.5 234.448 748.5 228.56C748.5 222.416 753.236 218.32 759.764 218.32C766.164 218.32 770.9 222.416 770.9 228.56C770.9 234.448 766.164 238.8 759.764 238.8ZM833.455 220.624L829.999 234.448C827.567 233.552 824.751 232.912 822.447 232.912C816.815 232.912 813.743 236.24 813.743 244.176V250.32H827.183V265.168H813.743V322H794.927V265.168H785.327V251.216L794.927 250.448V244.56C794.927 229.584 801.839 218.064 819.887 218.064C825.391 218.064 830.255 219.344 833.455 220.624ZM871.516 323.792C851.548 323.792 835.932 309.84 835.932 286.288C835.932 262.992 852.188 248.528 869.34 248.528C889.052 248.528 899.292 262.992 899.292 282.832C899.292 286.288 898.908 289.744 898.396 291.408H854.236C855.772 303.184 863.452 309.328 874.076 309.328C879.964 309.328 885.084 307.536 890.204 304.336L896.604 315.856C889.564 320.72 880.476 323.792 871.516 323.792ZM853.98 278.992H883.164C883.164 269.264 878.812 263.12 869.596 263.12C862.044 263.12 855.388 268.496 853.98 278.992Z" fill="url(#paint11_linear_1041_2565)"/>
<path d="M544.96 377.08C546.14 378.5 547.4 380.42 548 381.7L546.28 382.74C545.76 381.42 544.48 379.4 543.34 377.94L544.96 377.08ZM553.06 376.02C552.8 380.74 552.26 384.46 550.96 387.34C552.62 388.96 554.52 390.98 555.46 392.38L553.78 393.62C553.02 392.4 551.52 390.6 550.04 389.06C548.76 391.06 546.96 392.6 544.44 393.78C544.18 393.38 543.44 392.54 543 392.14C549.26 389.62 550.66 384.64 551.04 375.92L553.06 376.02ZM538.76 391.84C538.58 391.4 538.06 390.62 537.72 390.3C538.2 390 539.06 389.26 539.06 388.26V376.58H541.1V388.22L545.38 386.14C545.48 386.7 545.72 387.52 545.88 387.94C540.12 390.82 539.3 391.32 538.76 391.84ZM564.02 380.78C562.64 382.5 560.5 384.3 558.72 385.44C558.38 385.06 557.66 384.34 557.22 384.02C559.02 383.08 561 381.54 562.18 380.06L564.02 380.78ZM569.66 380C571.44 381.2 573.72 383.02 574.82 384.28L573.22 385.52C572.22 384.26 569.98 382.36 568.16 381.08L569.66 380ZM563.22 383.58C563.88 385.2 564.84 386.62 566.06 387.78C567.28 386.62 568.22 385.2 568.86 383.48L570.78 384.04C569.96 386.02 568.86 387.64 567.48 388.98C569.5 390.4 572.06 391.38 575.18 391.86C574.76 392.26 574.24 393.04 574 393.56C570.74 392.96 568.12 391.84 566.04 390.2C563.86 391.84 561.18 392.94 558.06 393.7C557.84 393.26 557.28 392.42 556.92 392C560 391.38 562.6 390.42 564.64 388.96C563.36 387.62 562.32 386 561.52 384.12L563.22 383.58ZM566 374.9C566.54 375.72 567.2 376.86 567.46 377.58L566.92 377.78H574.7V379.62H557.26V377.78H565.38C565.1 377.1 564.64 376.22 564.2 375.52L566 374.9ZM585.06 379.62C586.14 380.48 587.5 381.72 588.14 382.58L586.74 383.8C586.16 382.94 584.84 381.62 583.74 380.72L585.06 379.62ZM591.88 376.92L592.2 376.82L593.5 377.44C592.34 381.98 590.24 385.48 587.52 388.12C589.66 389.72 592.26 390.9 595.4 391.56C594.98 391.96 594.44 392.8 594.16 393.32C590.86 392.54 588.18 391.24 586 389.48C583.56 391.4 580.76 392.76 577.74 393.66C577.52 393.18 576.96 392.28 576.56 391.9C579.52 391.1 582.22 389.9 584.54 388.16C582.14 385.72 580.42 382.6 579.2 378.84L579.4 378.78H577.84V376.92H591.88ZM581.12 378.78C582.2 382 583.8 384.74 586.06 386.88C588.3 384.82 590.04 382.16 591.1 378.78H581.12ZM614.38 391.34C614.38 392.5 614.1 393 613.38 393.3C612.64 393.58 611.46 393.64 609.58 393.62C609.48 393.12 609.2 392.32 608.92 391.82C610.28 391.86 611.58 391.86 611.96 391.84C612.36 391.82 612.5 391.7 612.5 391.34V375.46H614.38V391.34ZM610.44 377.42V388.66H608.62V377.42H610.44ZM600.6 382.42H606.18C605.3 381.16 603.9 379.5 602.62 378.08C601.66 379.68 600.48 381.16 599.12 382.42H600.6ZM603.86 375.66L603.46 376.52C605.08 378.2 607.04 380.34 607.96 381.74L606.58 383.02L606.32 382.62L606.3 383.1C606.12 386.52 605.92 387.92 605.46 388.42C605.12 388.82 604.76 388.96 604.22 389.02C603.8 389.08 603 389.08 602.16 389.04C602.14 388.56 601.96 387.88 601.7 387.44C602.42 387.52 603.06 387.52 603.34 387.52C603.6 387.52 603.76 387.5 603.92 387.32C604.14 387.06 604.3 386.18 604.44 384.06H600.6V390.82C600.6 391.62 600.78 391.74 601.74 391.74C602.2 391.74 604.34 391.74 604.9 391.74C605.78 391.74 605.94 391.32 606.04 389.06C606.44 389.36 607.18 389.66 607.68 389.76C607.46 392.56 606.94 393.38 605.04 393.38C604.56 393.38 602 393.38 601.54 393.38C599.42 393.38 598.78 392.86 598.78 390.84V382.74C598.46 383 598.14 383.28 597.82 383.52C597.52 383.14 596.86 382.48 596.46 382.16C598.94 380.42 601.06 377.68 602.12 375.12L603.86 375.66ZM624.4 387.24C625.04 388.2 625.76 389.46 626.08 390.28L624.76 391.08C624.44 390.22 623.74 388.9 623.14 387.92L624.4 387.24ZM620 387.76C619.52 389.12 618.74 390.56 617.96 391.48C617.68 391.24 617.06 390.78 616.7 390.58C617.48 389.74 618.12 388.54 618.52 387.38L620 387.76ZM628.78 384C628.78 386.9 628.52 390.9 626.72 393.48C626.42 393.12 625.68 392.54 625.26 392.34C626.88 390 627.02 386.62 627.02 384V377.04C629.22 376.66 631.74 376.04 633.2 375.42L634.68 376.82C633.02 377.44 630.82 377.92 628.78 378.28V381.8H635.24V383.56H633.2V393.58H631.36V383.56H628.78V384ZM621.8 375.02C622.16 375.68 622.54 376.5 622.78 377.16H626.06V378.72H617.16V377.16H620.86C620.64 376.58 620.38 375.96 620.12 375.44L621.8 375.02ZM622.54 391.5C622.54 392.3 622.4 392.74 621.88 393C621.36 393.26 620.6 393.3 619.6 393.3C619.54 392.84 619.3 392.16 619.06 391.72C619.72 391.74 620.34 391.74 620.56 391.72C620.78 391.72 620.84 391.66 620.84 391.46V386.72H616.94V385.1H620.84V383.26H616.84V381.68H619.04C618.96 380.96 618.68 379.94 618.34 379.14L619.86 378.78C620.24 379.58 620.56 380.66 620.66 381.38L619.52 381.68H622.32C622.68 380.82 623.1 379.6 623.32 378.74L625.06 379.1C624.74 380 624.36 380.92 624.04 381.68H626.38V383.26H622.54V385.1H626.1V386.72H622.54V391.5ZM640.8 389.14L641.02 389.16C644.5 387.1 648.22 383.72 650.46 380.82H637.94V378.98H646.1C645.64 378.1 644.8 376.8 644.12 375.86L645.82 374.96C646.58 375.98 647.58 377.36 648.02 378.22L646.68 378.98H651.86L652.24 378.88L653.68 379.82C651.18 383.56 646.84 387.64 642.74 390.24L643 390.4C644.28 391.22 645.96 391.36 648.18 391.36C650.4 391.36 653.4 391.18 655.34 390.94C655.12 391.46 654.82 392.46 654.78 392.98C653.32 393.08 650.06 393.18 648.1 393.18C645.66 393.18 644.04 392.94 642.68 392.1C641.84 391.58 641.2 390.92 640.76 390.92C640.12 390.92 639.2 392.18 638.3 393.48L636.92 391.72C638.3 390.22 639.74 389.14 640.8 389.14ZM665.18 382.98C666.34 383.6 667.8 384.56 668.56 385.3L666.84 386.4C666.18 385.68 664.74 384.64 663.56 383.96L665.18 382.98ZM663.2 390.84C663.2 391.44 663.42 391.54 664.66 391.54C665.24 391.54 667.96 391.54 668.72 391.54C669.74 391.54 669.88 391.24 670 389.22C670.42 389.52 671.2 389.78 671.72 389.92C671.48 392.58 670.9 393.24 668.84 393.24C668.3 393.24 665.04 393.24 664.52 393.24C662 393.24 661.34 392.72 661.34 390.86V387.16H663.2V390.84ZM665.6 385.92C666.72 386.9 668.06 388.3 668.7 389.24L667.16 390.24C666.58 389.3 665.24 387.82 664.14 386.78L665.6 385.92ZM672.58 386.82C673.58 388.5 674.64 390.72 675.02 392.18L673.22 392.8C672.88 391.38 671.9 389.08 670.92 387.36L672.58 386.82ZM660.56 387.64C660.14 389.36 659.52 391.54 658.66 392.92L656.96 392.06C657.82 390.76 658.52 388.76 658.88 387.08L660.56 387.64ZM667.08 374.98C666.98 375.94 666.86 376.9 666.68 377.82H675.02V379.58H668.1C669.48 382.2 671.9 384.02 675.32 384.78C674.88 385.2 674.34 386 674.06 386.52C670.2 385.44 667.7 383.16 666.18 379.74C665.16 382.76 662.98 385.28 657.88 386.68C657.7 386.22 657.22 385.5 656.82 385.08C661.3 383.96 663.26 381.98 664.2 379.58H657.04V377.82H664.7C664.9 376.9 665 375.96 665.1 374.98H667.08ZM694.64 376.14V379.88H693V377.76H684.88V379.96H683.3V376.14H694.64ZM688.36 379.46C687.38 381.16 685.8 382.88 684.34 383.94C684.06 383.6 683.42 382.92 683.02 382.62C684.44 381.72 685.86 380.32 686.66 378.88L688.36 379.46ZM690.82 378.72C692.18 379.92 693.86 381.6 694.64 382.74L693.18 383.8C692.46 382.66 690.84 380.9 689.46 379.66L690.82 378.72ZM689.84 382.78V384.88H694.82V386.58H690.86C691.98 388.38 693.68 390.04 695.4 390.94C694.98 391.28 694.42 391.96 694.14 392.42C692.56 391.38 690.98 389.64 689.84 387.74V393.5H688.04V387.82C686.82 389.82 685.12 391.52 683.24 392.52C682.98 392.08 682.46 391.4 682.06 391.06C684.02 390.18 685.86 388.5 687.02 386.58H683.18V384.88H688.04V382.78H689.84ZM680.94 391.56C680.94 392.46 680.76 392.92 680.22 393.2C679.68 393.5 678.86 393.54 677.62 393.54C677.58 393.1 677.34 392.36 677.12 391.88C677.9 391.92 678.62 391.9 678.86 391.9C679.1 391.88 679.18 391.82 679.18 391.56V386.7L677.24 387.38L676.72 385.58C677.4 385.38 678.26 385.1 679.18 384.8V380.8H676.96V379.04H679.18V375.12H680.94V379.04H682.74V380.8H680.94V384.2L682.62 383.62L682.96 385.32L680.94 386.06V391.56ZM712.46 375.96V383.6H710.76V385.4H715.14V387.2H710.76V391.28C710.76 392.32 710.54 392.86 709.76 393.16C709 393.46 707.84 393.48 706.04 393.48C705.96 392.92 705.68 392.12 705.42 391.58C706.68 391.64 707.98 391.62 708.36 391.62C708.7 391.62 708.82 391.52 708.82 391.24V387.2H702.42C703.52 388.14 704.62 389.4 705.18 390.3L703.62 391.36C703.12 390.42 701.92 388.98 700.82 387.98L702.08 387.2H697.34V385.4H708.82V383.6H699.24V382.14H710.5V380.48H699.92V378.98H710.5V377.42H699.3V375.96H712.46ZM728.82 390C731.08 390.68 733.58 391.64 735.04 392.36L733.5 393.66C732.14 392.9 729.88 391.94 727.66 391.24L728.82 390ZM724.42 391.18C722.84 392.16 720.34 393.16 718.34 393.68C718.06 393.32 717.48 392.72 717.08 392.38C719.06 391.88 721.56 390.92 722.82 390.1L724.42 391.18ZM727.28 375.28L727.04 376.66H734.42V378.26H726.76L726.54 379.36H732.2V388.34H734.92V389.92H717.12V388.34H719.9V379.36H724.7L724.9 378.26H717.66V376.66H725.12L725.28 375.08L727.28 375.28ZM721.72 388.34H730.3V387.14H721.72V388.34ZM721.72 381.72H730.3V380.62H721.72V381.72ZM721.72 382.86V383.86H730.3V382.86H721.72ZM721.72 385V386H730.3V385H721.72ZM745.84 383.5H748.48V381.3H745.84V383.5ZM750.1 381.3V383.5H752.68V381.3H750.1ZM745.84 379.78H748.48V377.62H745.84V379.78ZM750.1 377.62V379.78H752.68V377.62H750.1ZM755.42 391.32V393.04H742.46V391.32H748.32V388.92H743.94V387.2H748.32V385.12H744.12V376H754.48V385.12H750.24V387.2H754.74V388.92H750.24V391.32H755.42ZM736.6 389.78C737.34 389.58 738.24 389.32 739.2 389.02V383.9H737.02V382.16H739.2V378.14H736.82V376.38H743.24V378.14H741V382.16H742.94V383.9H741V388.46L743.1 387.76L743.42 389.58C741.24 390.32 738.88 391.12 737.06 391.72L736.6 389.78ZM759.46 394.4L758.94 393.1C760.48 392.54 761.38 391.62 761.48 390.4L761.2 390.42C760.3 390.42 759.52 389.86 759.52 388.84C759.52 387.82 760.3 387.24 761.22 387.24C762.48 387.24 763.14 388.22 763.14 389.74C763.14 391.94 761.74 393.68 759.46 394.4ZM779.66 375.4C780.64 376.3 782.08 377.58 782.78 378.34L781.56 379.74C780.9 378.94 779.52 377.58 778.5 376.62L779.66 375.4ZM789.5 375.28V381.58H793.88V383.4H789.5V391.22H795.26V393.08H782.84V391.22H787.58V375.28H789.5ZM779.68 393.32C779.46 392.98 778.8 392.4 778.48 392.18C778.94 391.76 779.86 390.78 779.86 389.6V383.18H776.86V381.36H781.64V389.42L783.82 387.74C783.94 388.26 784.2 388.98 784.4 389.34C780.58 392.36 780 392.86 779.68 393.32ZM802.26 380.56H812.54C812.54 380.56 812.52 381.2 812.52 381.44L812.4 384.92H815.26V386.62H812.32C812.26 387.7 812.2 388.62 812.14 389.38H814.48V391.04H811.94C811.8 391.98 811.62 392.52 811.38 392.82C810.96 393.4 810.5 393.58 809.86 393.64C809.24 393.72 808.22 393.7 807.22 393.64C807.2 393.22 807 392.58 806.76 392.18C807.72 392.24 808.58 392.26 808.98 392.26C809.34 392.26 809.52 392.2 809.72 391.94C809.84 391.8 809.96 391.5 810.06 391.04H798.86C799.1 389.84 799.36 388.28 799.6 386.62H796.78V384.92H799.84C800.06 383.4 800.24 381.9 800.36 380.56H802.26ZM810.64 382.24H805.26C806.42 382.76 807.68 383.54 808.36 384.16L807.56 384.98H810.56L810.64 382.24ZM802.06 382.24L801.72 384.98H806.88C806.1 384.34 804.88 383.58 803.8 383.08L804.68 382.24H802.06ZM810.28 389.38C810.36 388.64 810.42 387.7 810.48 386.56H804.9C806.08 387.16 807.38 387.98 808.08 388.64L807.38 389.38H810.28ZM801.06 389.38H806.52C805.7 388.7 804.48 387.9 803.4 387.36L804.24 386.56H801.5L801.06 389.38ZM803.2 375.54C802.98 376.04 802.74 376.54 802.48 377.04H814.54V378.74H801.5C800.52 380.3 799.44 381.7 798.4 382.76C798 382.46 797.18 381.92 796.7 381.66C798.54 380.08 800.28 377.52 801.32 375L803.2 375.54ZM835.24 383.16V385.24H816.84V383.16H835.24ZM838.14 376.48C839.48 377.2 841.26 378.32 842.12 379.14L840.92 380.7C840.12 379.86 838.36 378.64 837 377.84L838.14 376.48ZM836.72 390.46C837.86 388.98 839.52 386.52 840.8 384.28L842.28 385.52C841.14 387.62 839.72 389.88 838.48 391.76L836.72 390.46ZM853.06 378.4L853.42 378.28L854.82 379.08C854.3 381.1 853.42 383.26 852.72 384.7C852.32 384.48 851.56 384.1 851.1 383.9C851.54 382.98 852.06 381.6 852.44 380.28H845.56C844.94 381.92 844.2 383.36 843.38 384.48C843 384.18 842.06 383.66 841.56 383.42C843.16 381.5 844.3 378.34 844.92 375.12L846.96 375.48C846.74 376.48 846.5 377.46 846.2 378.4H853.06ZM849.24 382.38C849.24 382.82 849.22 383.3 849.2 383.8C850.1 387.64 851.92 390.62 855.36 391.86C854.94 392.24 854.36 393.02 854.08 393.54C851.32 392.34 849.6 390.2 848.48 387.28C847.64 389.58 845.88 391.98 842.28 393.8C841.98 393.34 841.3 392.66 840.82 392.3C846.72 389.44 847.2 385.1 847.2 382.34V381.08H849.24V382.38ZM874.64 376.14V379.88H873V377.76H864.88V379.96H863.3V376.14H874.64ZM868.36 379.46C867.38 381.16 865.8 382.88 864.34 383.94C864.06 383.6 863.42 382.92 863.02 382.62C864.44 381.72 865.86 380.32 866.66 378.88L868.36 379.46ZM870.82 378.72C872.18 379.92 873.86 381.6 874.64 382.74L873.18 383.8C872.46 382.66 870.84 380.9 869.46 379.66L870.82 378.72ZM869.84 382.78V384.88H874.82V386.58H870.86C871.98 388.38 873.68 390.04 875.4 390.94C874.98 391.28 874.42 391.96 874.14 392.42C872.56 391.38 870.98 389.64 869.84 387.74V393.5H868.04V387.82C866.82 389.82 865.12 391.52 863.24 392.52C862.98 392.08 862.46 391.4 862.06 391.06C864.02 390.18 865.86 388.5 867.02 386.58H863.18V384.88H868.04V382.78H869.84ZM860.94 391.56C860.94 392.46 860.76 392.92 860.22 393.2C859.68 393.5 858.86 393.54 857.62 393.54C857.58 393.1 857.34 392.36 857.12 391.88C857.9 391.92 858.62 391.9 858.86 391.9C859.1 391.88 859.18 391.82 859.18 391.56V386.7L857.24 387.38L856.72 385.58C857.4 385.38 858.26 385.1 859.18 384.8V380.8H856.96V379.04H859.18V375.12H860.94V379.04H862.74V380.8H860.94V384.2L862.62 383.62L862.96 385.32L860.94 386.06V391.56ZM889.98 389.16C891.58 390 893.78 391.3 894.9 392.22L893.36 393.3C892.34 392.4 890.2 391 888.54 390.08L889.98 389.16ZM883.3 389.96C882.02 391.2 880.06 392.54 878.5 393.34C878.18 393 877.48 392.36 877.06 392.08C878.68 391.38 880.48 390.32 881.58 389.26L883.3 389.96ZM887.26 391.62C887.26 392.56 887.06 393.04 886.32 393.32C885.6 393.58 884.54 393.6 883.08 393.6C882.98 393.06 882.68 392.34 882.4 391.86C883.56 391.9 884.7 391.9 885.02 391.88C885.34 391.88 885.42 391.8 885.42 391.58V388.5C879.86 388.86 879.04 388.96 878.46 389.16C878.4 388.84 878.16 388.02 877.98 387.58C878.68 387.48 879.52 387.22 880.7 386.76C881.26 386.54 882.46 386.06 883.86 385.4C880.78 385.6 880.26 385.68 879.9 385.8C879.84 385.48 879.6 384.68 879.42 384.24C879.84 384.18 880.32 383.98 880.9 383.68C881.42 383.44 882.98 382.6 884.32 381.62H878.98V383.94H877.2V380.02H885.02V378.44H877.5V376.78H885.02V375.1H887V376.78H894.5V378.44H887V380.02H894.86V383.94H892.98V381.62H885.86L886.4 382.04C885.24 382.86 883.92 383.62 882.56 384.26L886.54 384.08C887.54 383.54 888.54 382.96 889.42 382.38L890.74 383.5C888.26 384.98 885.62 386.24 882.98 387.26L890.6 386.84C890.14 386.38 889.66 385.94 889.2 385.56L890.52 384.72C891.94 385.88 893.72 387.54 894.6 388.66L893.16 389.62C892.84 389.18 892.38 388.66 891.86 388.1L887.26 388.38V391.62ZM899.46 394.4L898.94 393.1C900.48 392.54 901.38 391.62 901.48 390.4L901.2 390.42C900.3 390.42 899.52 389.86 899.52 388.84C899.52 387.82 900.3 387.24 901.22 387.24C902.48 387.24 903.14 388.22 903.14 389.74C903.14 391.94 901.74 393.68 899.46 394.4ZM926.3 384.48V393.32H924.5V392.48H920.54V393.62H918.82V387.06C918.38 387.34 917.92 387.6 917.46 387.86C917.26 387.46 916.68 386.66 916.34 386.3C918.22 385.38 919.92 384.18 921.38 382.74H916.82V381.08H920.6V379H917.7V377.34H920.6V375.28H922.36V377.34H924.66V378.44C925.12 377.64 925.52 376.78 925.88 375.9L927.58 376.38C926.88 378.08 926.02 379.66 925.02 381.08H927.1V382.74H923.74C923.22 383.36 922.66 383.94 922.08 384.48H926.3ZM922.36 379V381.08H922.88C923.4 380.42 923.88 379.72 924.34 379H922.36ZM920.54 390.94H924.5V389.12H920.54V390.94ZM920.54 387.66H924.5V386.02H920.54V387.66ZM933.72 376.24L934 376.18L935.38 377.04C934.6 378.94 933.58 381.24 932.68 383.04C934.62 384.88 935.08 386.46 935.08 387.84C935.08 389.18 934.76 390.14 934 390.64C933.64 390.9 933.16 391.04 932.62 391.12C932.12 391.18 931.44 391.18 930.8 391.16C930.78 390.64 930.58 389.82 930.28 389.3C930.88 389.36 931.4 389.36 931.8 389.34C932.14 389.34 932.44 389.28 932.68 389.12C933.1 388.9 933.26 388.36 933.24 387.64C933.24 386.44 932.68 384.98 930.8 383.3C931.54 381.7 932.36 379.6 932.94 378.02H929.74V393.68H927.86V376.24H933.72ZM948.6 375.14C948.6 376.22 948.62 377.3 948.66 378.34H952.52C951.74 377.68 950.44 376.8 949.38 376.22L950.54 375.08C951.72 375.68 953.24 376.62 954 377.3L953.02 378.34H955.1V380.2H948.78C948.96 382.58 949.3 384.76 949.74 386.56C950.7 385.08 951.48 383.4 952.04 381.54L953.94 382C953.08 384.62 951.92 386.92 950.44 388.86C951.1 390.6 951.9 391.62 952.76 391.62C953.28 391.62 953.54 390.58 953.64 388C954.08 388.42 954.76 388.86 955.28 389.04C954.96 392.62 954.28 393.56 952.62 393.56C951.12 393.56 949.94 392.42 949.04 390.54C947.9 391.72 946.64 392.74 945.24 393.58C944.96 393.18 944.28 392.4 943.86 392.02C945.54 391.12 947.02 389.96 948.26 388.54C947.54 386.24 947.06 383.34 946.82 380.2H940.36V382.62H945.44C945.44 382.62 945.44 383.14 945.42 383.38C945.34 387.76 945.22 389.48 944.8 390.06C944.44 390.5 944.06 390.66 943.5 390.72C942.98 390.8 942.08 390.8 941.12 390.76C941.1 390.2 940.88 389.46 940.6 388.98C941.44 389.06 942.22 389.06 942.56 389.06C942.84 389.06 943.02 389.04 943.18 388.86C943.4 388.54 943.52 387.4 943.58 384.36H940.36C940.34 387.26 940 391.3 938.24 393.86C937.9 393.5 937.06 392.82 936.62 392.58C938.24 390.16 938.38 386.68 938.38 384.06V378.34H946.7C946.66 377.28 946.62 376.22 946.62 375.14H948.6ZM960.66 375.64C961.44 376.54 962.34 377.78 962.74 378.6L961 379.4C960.64 378.58 959.76 377.28 959 376.34L960.66 375.64ZM967.4 383.98C968.4 385.14 969.56 386.7 970.06 387.74L968.36 388.62C967.9 387.58 966.78 385.92 965.82 384.74L967.4 383.98ZM965.92 377.68C965.92 378.36 965.9 379.1 965.86 379.86H974.14C974.14 379.86 974.12 380.54 974.1 380.8C973.82 388.7 973.56 391.56 972.76 392.5C972.26 393.16 971.74 393.36 970.96 393.44C970.22 393.54 968.98 393.5 967.76 393.44C967.72 392.88 967.46 392.04 967.08 391.48C968.38 391.58 969.6 391.58 970.12 391.58C970.54 391.6 970.76 391.54 970.98 391.28C971.58 390.68 971.86 388.1 972.1 381.78H965.68C965.16 385.66 963.52 390.1 958.54 393.36C958.24 392.94 957.52 392.28 957.04 391.98C961.58 389.08 963.16 385.22 963.7 381.78H957.56V379.86H963.92C963.96 379.08 963.98 378.36 963.98 377.68V375.16H965.92V377.68ZM986.92 386.68H992.18V384.02H986.92V386.68ZM994.06 382.48V388.24H985.14V382.48H994.06ZM984.4 389.3C984.66 390.62 984.9 392.3 984.92 393.32L983.06 393.62C983.04 392.58 982.9 390.84 982.66 389.52L984.4 389.3ZM988.7 389.12C989.2 390.38 989.76 392.08 989.94 393.12L988.06 393.54C987.9 392.5 987.42 390.76 986.92 389.46L988.7 389.12ZM992.74 388.7C993.62 390 994.72 391.78 995.22 392.9L993.42 393.7C992.96 392.58 991.92 390.74 991.04 389.38L992.74 388.7ZM981.14 389.36C980.46 390.86 979.48 392.64 978.6 393.78L976.78 392.98C977.64 392 978.66 390.32 979.32 388.86L981.14 389.36ZM983.8 375.94V387.56H979.5V388.54H977.72V375.94H983.8ZM979.5 377.62V380.72H982.04V377.62H979.5ZM979.5 385.86H982.04V382.4H979.5V385.86ZM994.66 375.9C994.66 375.9 994.64 376.34 994.62 376.56C994.44 379.4 994.26 380.62 993.82 381.1C993.48 381.48 993.08 381.6 992.54 381.64C992.06 381.68 991.18 381.7 990.26 381.66C990.22 381.18 990.04 380.54 989.78 380.12C990.6 380.2 991.36 380.2 991.68 380.2C991.96 380.2 992.14 380.18 992.28 380.02C992.5 379.8 992.64 379.12 992.76 377.56H989.52C989.08 379.88 988 381.48 984.9 382.4C984.72 381.98 984.26 381.34 983.9 381C986.42 380.32 987.3 379.22 987.66 377.56H984.54V375.9H994.66ZM1014.58 384.56V388.1H1012.7V386.02H999.18V388.12H997.4V384.56H1014.58ZM1001.8 382.2H1010.2V380.72H1001.8V382.2ZM1012.18 379.42V383.48H999.92V379.42H1012.18ZM1009.38 387.18H1010.1V391.1C1010.1 391.64 1010.2 391.7 1010.78 391.7C1011.02 391.7 1012.18 391.7 1012.52 391.7C1013.02 391.7 1013.14 391.4 1013.2 389.6C1013.6 389.9 1014.4 390.18 1014.9 390.3C1014.72 392.7 1014.22 393.34 1012.74 393.34C1012.32 393.34 1010.84 393.34 1010.48 393.34C1008.56 393.34 1008.1 392.8 1008.1 391.1V388.76H1003.68C1003.28 391.46 1002.06 392.88 998.08 393.68C997.92 393.2 997.44 392.46 997.06 392.08C1001.16 391.4 1001.72 390.16 1001.86 387.18H1009.38ZM1006.4 374.96C1006.78 375.52 1007.18 376.28 1007.38 376.84H1014.88V378.44H997.1V376.84H1005.22C1005.04 376.36 1004.76 375.8 1004.5 375.36L1006.4 374.96ZM1026.98 375.12V378.28H1033.5V380.16H1026.98V383.22H1034.92V385.1H1027.96C1029.76 387.52 1032.68 389.86 1035.42 391.04C1034.96 391.42 1034.36 392.18 1034.04 392.68C1031.5 391.38 1028.9 389.12 1026.98 386.62V393.68H1024.98V386.72C1023.08 389.18 1020.48 391.36 1017.96 392.68C1017.62 392.2 1017 391.44 1016.56 391.06C1019.32 389.86 1022.22 387.54 1024 385.1H1017.16V383.22H1024.98V380.16H1018.62V378.28H1024.98V375.12H1026.98ZM1052.92 380.02C1052.18 381.4 1051.34 382.9 1050.66 383.88L1049.04 383.3C1049.7 382.26 1050.5 380.62 1050.94 379.42L1052.92 380.02ZM1041.22 379.5C1042 380.62 1042.76 382.16 1043.04 383.14L1041.24 383.86C1041 382.86 1040.26 381.3 1039.52 380.12L1041.22 379.5ZM1047 375.12V377.42H1054.14V379.24H1047V383.92H1054.94V385.74H1048.2C1050 388.04 1052.8 390.22 1055.42 391.34C1055 391.72 1054.38 392.44 1054.1 392.92C1051.54 391.66 1048.9 389.38 1047 386.88V393.66H1045V386.92C1043.1 389.4 1040.46 391.6 1037.94 392.88C1037.62 392.42 1037.02 391.68 1036.58 391.3C1039.22 390.18 1042 388.02 1043.82 385.74H1037.08V383.92H1045V379.24H1038.04V377.42H1045V375.12H1047ZM1068.38 382.86C1069.44 384.26 1070.8 386.18 1071.42 387.36L1069.82 388.36C1069.26 387.14 1067.96 385.16 1066.9 383.7L1068.38 382.86ZM1069.68 375.5C1069.44 376.42 1069.16 377.34 1068.84 378.24H1074.7C1074.7 378.24 1074.7 378.9 1074.7 379.14C1074.4 388.26 1074.16 391.4 1073.34 392.4C1072.84 393.08 1072.34 393.26 1071.58 393.36C1070.88 393.44 1069.68 393.42 1068.54 393.36C1068.5 392.84 1068.26 392.04 1067.9 391.52C1069.2 391.64 1070.4 391.64 1070.9 391.64C1071.3 391.64 1071.52 391.58 1071.76 391.32C1072.38 390.64 1072.66 387.6 1072.9 379.98H1068.16C1067.6 381.28 1066.98 382.44 1066.32 383.36C1066 383.08 1065.28 382.6 1064.84 382.32V391.6H1059.36V393.14H1057.62V378.34H1059.9C1060.16 377.36 1060.46 376.06 1060.58 375.08L1062.64 375.42C1062.32 376.42 1061.94 377.48 1061.6 378.34H1064.84V382.14C1066.18 380.4 1067.24 377.72 1067.86 375.08L1069.68 375.5ZM1059.36 380.02V383.82H1063.1V380.02H1059.36ZM1059.36 389.9H1063.1V385.46H1059.36V389.9ZM1080.32 376.04C1081.3 377.56 1082.32 379.58 1082.68 380.94L1080.86 381.66C1080.54 380.36 1079.56 378.26 1078.62 376.68L1080.32 376.04ZM1093.66 376.54C1092.8 378.3 1091.74 380.3 1090.88 381.58L1089.26 380.96C1090.08 379.6 1091.12 377.44 1091.68 375.86L1093.66 376.54ZM1086.9 375.12V382.62H1095V384.42H1089.46V391.04C1089.46 391.74 1089.58 391.86 1090.3 391.86C1090.66 391.86 1092.16 391.86 1092.6 391.86C1093.32 391.86 1093.44 391.4 1093.54 388.58C1093.94 388.9 1094.76 389.22 1095.28 389.36C1095.06 392.74 1094.58 393.64 1092.76 393.64C1092.34 393.64 1090.46 393.64 1090.06 393.64C1088.06 393.64 1087.56 393.04 1087.56 391.06V384.42H1084.22C1083.84 388.74 1082.88 391.98 1077.76 393.7C1077.54 393.2 1077 392.44 1076.58 392.06C1081.22 390.66 1081.9 388 1082.2 384.42H1077.04V382.62H1084.98V375.12H1086.9ZM1099.88 393.34C1098.16 393.34 1096.74 391.94 1096.74 390.22C1096.74 388.5 1098.16 387.08 1099.88 387.08C1101.62 387.08 1103 388.5 1103 390.22C1103 391.94 1101.62 393.34 1099.88 393.34ZM1099.88 392.14C1100.94 392.14 1101.8 391.28 1101.8 390.22C1101.8 389.16 1100.94 388.3 1099.88 388.3C1098.82 388.3 1097.96 389.16 1097.96 390.22C1097.96 391.28 1098.82 392.14 1099.88 392.14Z" fill="#383838"/>
<g opacity="0.05">
<g opacity="0.8">
<path d="M1294.89 268.618C1287.05 256.072 1282.92 242.906 1282.57 231.781C1282.22 220.815 1285.52 211.935 1292.42 207.478L1292.75 207.269C1299.86 202.875 1309.48 203.815 1319.37 209.074C1329.25 214.327 1339.29 223.845 1347.13 236.397C1354.97 248.941 1359.1 262.106 1359.46 273.23C1359.81 284.369 1356.39 293.356 1349.28 297.742C1342.17 302.135 1332.54 301.193 1322.65 295.933C1312.77 290.681 1302.73 281.165 1294.89 268.618Z" fill="white" stroke="url(#paint12_linear_1041_2565)"/>
</g>
</g>
<g opacity="0.24">
<g opacity="0.8">
<path d="M1281.89 271.618C1274.05 259.072 1269.92 245.906 1269.57 234.781C1269.22 223.815 1272.52 214.935 1279.42 210.478L1279.75 210.269C1286.86 205.875 1296.48 206.815 1306.37 212.074C1316.25 217.327 1326.29 226.845 1334.13 239.397C1341.97 251.941 1346.1 265.106 1346.46 276.23C1346.81 287.369 1343.39 296.356 1336.28 300.742C1329.17 305.135 1319.54 304.193 1309.65 298.933C1299.77 293.681 1289.73 284.165 1281.89 271.618Z" fill="white" stroke="url(#paint13_linear_1041_2565)"/>
</g>
</g>
<g opacity="0.8">
<path d="M1266.89 277.618C1259.05 265.072 1254.92 251.906 1254.57 240.781C1254.22 229.815 1257.52 220.935 1264.42 216.478L1264.75 216.269C1271.86 211.875 1281.48 212.815 1291.37 218.074C1301.25 223.327 1311.29 232.845 1319.13 245.397C1326.97 257.941 1331.1 271.106 1331.46 282.23C1331.81 293.369 1328.39 302.356 1321.28 306.742C1314.17 311.135 1304.54 310.193 1294.65 304.933C1284.77 299.681 1274.73 290.165 1266.89 277.618Z" fill="white" stroke="url(#paint14_linear_1041_2565)"/>
</g>
<g opacity="0.05">
<path d="M1121.08 58.3006C1125.44 72.2945 1132.83 84.6659 1141.61 92.7075C1150.35 100.71 1159.87 101.18 1168.72 98.9707L1168.73 98.9704C1173.27 97.8418 1177.6 97.1598 1182.36 98.2154C1187.12 99.2709 1192.25 102.049 1198.44 107.721C1210.04 118.362 1215.24 129.913 1220.06 143.86L1221.02 146.681C1226.03 161.574 1232.42 175.69 1241 183.815L1241.41 184.197C1250.19 192.245 1259.56 195.235 1267.46 192.724C1275.34 190.217 1281.32 182.345 1283.95 170.671C1286.57 158.996 1285.61 144.567 1281.25 130.574C1277.02 117.018 1269.94 104.987 1261.53 96.9333L1260.71 96.1663C1252.24 88.4003 1243.05 87.7302 1234.41 89.6962L1233.58 89.8947C1229.04 91.0306 1224.71 91.7144 1219.96 90.6614C1215.2 89.6084 1210.08 86.834 1203.89 81.1693L1203.89 81.1684C1191.51 69.8037 1186.42 57.4185 1181.29 42.1795L1181.29 42.1786C1176.23 27.06 1169.69 12.7224 1160.9 4.66826L1160.9 4.66733C1152.13 -3.38396 1142.77 -6.35994 1134.88 -3.85341C1126.98 -1.34197 1121 6.52937 1118.37 18.2023L1118.37 18.2029C1115.76 29.8783 1116.71 44.2926 1121.08 58.3006Z" fill="white" fill-opacity="0.8" stroke="url(#paint15_linear_1041_2565)"/>
</g>
<g opacity="0.24">
<path d="M1103.08 67.3006C1107.44 81.2945 1114.83 93.6659 1123.61 101.708C1132.35 109.71 1141.87 110.18 1150.72 107.971L1150.72 107.97C1155.27 106.842 1159.6 106.16 1164.36 107.215C1169.12 108.271 1174.24 111.049 1180.43 116.721C1192.04 127.362 1197.24 138.913 1202.06 152.86L1203.02 155.681C1208.03 170.574 1214.42 184.69 1223 192.815L1223.41 193.197C1232.19 201.245 1241.55 204.235 1249.45 201.724C1257.34 199.217 1263.32 191.345 1265.95 179.671C1268.56 167.996 1267.61 153.567 1263.24 139.574C1259.02 126.018 1251.93 113.987 1243.53 105.933L1242.71 105.166C1234.24 97.4003 1225.04 96.7302 1216.41 98.6962L1215.58 98.8947C1211.03 100.031 1206.71 100.714 1201.96 99.6614C1197.2 98.6084 1192.08 95.834 1185.89 90.1693L1185.89 90.1684C1173.51 78.8037 1168.41 66.4185 1163.29 51.1795L1163.29 51.1786C1158.22 36.06 1151.69 21.7224 1142.89 13.6683L1142.89 13.6673C1134.13 5.61604 1124.77 2.64006 1116.88 5.14659C1108.98 7.65803 1103 15.5294 1100.37 27.2023L1100.37 27.2029C1097.76 38.8783 1098.71 53.2926 1103.08 67.3006Z" fill="white" fill-opacity="0.8" stroke="url(#paint16_linear_1041_2565)"/>
</g>
<path d="M1079.08 73.3006C1083.44 87.2945 1090.83 99.6659 1099.61 107.708C1108.35 115.71 1117.87 116.18 1126.72 113.971L1126.72 113.97C1131.27 112.842 1135.6 112.16 1140.36 113.215C1145.12 114.271 1150.24 117.049 1156.43 122.721C1168.04 133.362 1173.24 144.913 1178.06 158.86L1179.02 161.681C1184.03 176.574 1190.42 190.69 1199 198.815L1199.41 199.197C1208.19 207.245 1217.55 210.235 1225.45 207.724C1233.34 205.217 1239.32 197.345 1241.95 185.671C1244.56 173.996 1243.61 159.567 1239.24 145.574C1235.02 132.018 1227.93 119.987 1219.53 111.933L1218.71 111.166C1210.24 103.4 1201.04 102.73 1192.41 104.696L1191.58 104.895C1187.03 106.031 1182.71 106.714 1177.96 105.661C1173.2 104.608 1168.08 101.834 1161.89 96.1693L1161.89 96.1684C1149.51 84.8037 1144.41 72.4185 1139.29 57.1795L1139.29 57.1786C1134.22 42.06 1127.69 27.7224 1118.89 19.6683L1118.89 19.6673C1110.13 11.616 1100.77 8.64006 1092.88 11.1466C1084.98 13.658 1079 21.5294 1076.37 33.2023L1076.37 33.2029C1073.76 44.8783 1074.71 59.2926 1079.08 73.3006Z" fill="white" fill-opacity="0.8" stroke="url(#paint17_linear_1041_2565)"/>
</g>
<defs>
<filter id="filter0_f_1041_2565" x="-189.3" y="293.945" width="637.915" height="622.728" filterUnits="userSpaceOnUse" color-interpolation-filters="sRGB">
<feFlood flood-opacity="0" result="BackgroundImageFix"/>
<feBlend mode="normal" in="SourceGraphic" in2="BackgroundImageFix" result="shape"/>
<feGaussianBlur stdDeviation="69.6" result="effect1_foregroundBlur_1041_2565"/>
</filter>
<filter id="filter1_f_1041_2565" x="-180.017" y="242.408" width="717.487" height="498.604" filterUnits="userSpaceOnUse" color-interpolation-filters="sRGB">
<feFlood flood-opacity="0" result="BackgroundImageFix"/>
<feBlend mode="normal" in="SourceGraphic" in2="BackgroundImageFix" result="shape"/>
<feGaussianBlur stdDeviation="65" result="effect1_foregroundBlur_1041_2565"/>
</filter>
<filter id="filter2_f_1041_2565" x="1049.26" y="-206.521" width="517.694" height="543.806" filterUnits="userSpaceOnUse" color-interpolation-filters="sRGB">
<feFlood flood-opacity="0" result="BackgroundImageFix"/>
<feBlend mode="normal" in="SourceGraphic" in2="BackgroundImageFix" result="shape"/>
<feGaussianBlur stdDeviation="75.95" result="effect1_foregroundBlur_1041_2565"/>
</filter>
<filter id="filter3_f_1041_2565" x="980.052" y="-157.363" width="500.899" height="515.684" filterUnits="userSpaceOnUse" color-interpolation-filters="sRGB">
<feFlood flood-opacity="0" result="BackgroundImageFix"/>
<feBlend mode="normal" in="SourceGraphic" in2="BackgroundImageFix" result="shape"/>
<feGaussianBlur stdDeviation="65" result="effect1_foregroundBlur_1041_2565"/>
</filter>
<linearGradient id="paint0_linear_1041_2565" x1="0" y1="-38" x2="0" y2="592" gradientUnits="userSpaceOnUse">
<stop stop-color="#C92424"/>
<stop offset="1" stop-color="#FFDAB2"/>
</linearGradient>
<linearGradient id="paint1_linear_1041_2565" x1="814.5" y1="-65" x2="814.5" y2="922" gradientUnits="userSpaceOnUse">
<stop stop-color="#C92424"/>
<stop offset="1" stop-color="#FFDAB2"/>
</linearGradient>
<linearGradient id="paint2_linear_1041_2565" x1="801.5" y1="-103" x2="801.5" y2="884" gradientUnits="userSpaceOnUse">
<stop stop-color="#C92424"/>
<stop offset="1" stop-color="#FFDAB2"/>
</linearGradient>
<linearGradient id="paint3_linear_1041_2565" x1="129.657" y1="391.674" x2="129.657" y2="818.943" gradientUnits="userSpaceOnUse">
<stop stop-color="#C92424"/>
<stop offset="1" stop-color="#FFDAB2"/>
</linearGradient>
<linearGradient id="paint4_linear_1041_2565" x1="1308.11" y1="-68.0483" x2="1308.11" y2="198.811" gradientUnits="userSpaceOnUse">
<stop stop-color="#C92424"/>
<stop offset="1" stop-color="#FFDAB2"/>
</linearGradient>
<linearGradient id="paint5_linear_1041_2565" x1="309.035" y1="296.395" x2="233.017" y2="461.068" gradientUnits="userSpaceOnUse">
<stop stop-color="#C92424"/>
<stop offset="1" stop-color="#FFDAB2"/>
</linearGradient>
<linearGradient id="paint6_linear_1041_2565" x1="218.537" y1="466.593" x2="167.694" y2="576.732" gradientUnits="userSpaceOnUse">
<stop stop-color="#C92424"/>
<stop offset="1" stop-color="#FFDAB2"/>
</linearGradient>
<linearGradient id="paint7_linear_1041_2565" x1="310.035" y1="275.395" x2="234.017" y2="440.068" gradientUnits="userSpaceOnUse">
<stop stop-color="#C92424"/>
<stop offset="1" stop-color="#FFDAB2"/>
</linearGradient>
<linearGradient id="paint8_linear_1041_2565" x1="219.537" y1="445.593" x2="168.694" y2="555.732" gradientUnits="userSpaceOnUse">
<stop stop-color="#C92424"/>
<stop offset="1" stop-color="#FFDAB2"/>
</linearGradient>
<linearGradient id="paint9_linear_1041_2565" x1="312.035" y1="248.395" x2="236.017" y2="413.068" gradientUnits="userSpaceOnUse">
<stop stop-color="#C92424"/>
<stop offset="1" stop-color="#FFDAB2"/>
</linearGradient>
<linearGradient id="paint10_linear_1041_2565" x1="221.537" y1="418.593" x2="170.694" y2="528.732" gradientUnits="userSpaceOnUse">
<stop stop-color="#C92424"/>
<stop offset="1" stop-color="#FFDAB2"/>
</linearGradient>
<linearGradient id="paint11_linear_1041_2565" x1="872" y1="177" x2="872" y2="369" gradientUnits="userSpaceOnUse">
<stop stop-color="#C92424"/>
<stop offset="1" stop-color="#FFDAB2"/>
</linearGradient>
<linearGradient id="paint12_linear_1041_2565" x1="1294.56" y1="269.033" x2="1347.46" y2="235.982" gradientUnits="userSpaceOnUse">
<stop stop-color="#C92424"/>
<stop offset="1" stop-color="#FFDAB2"/>
</linearGradient>
<linearGradient id="paint13_linear_1041_2565" x1="1281.56" y1="272.033" x2="1334.46" y2="238.982" gradientUnits="userSpaceOnUse">
<stop stop-color="#C92424"/>
<stop offset="1" stop-color="#FFDAB2"/>
</linearGradient>
<linearGradient id="paint14_linear_1041_2565" x1="1266.56" y1="278.033" x2="1319.46" y2="244.982" gradientUnits="userSpaceOnUse">
<stop stop-color="#C92424"/>
<stop offset="1" stop-color="#FFDAB2"/>
</linearGradient>
<linearGradient id="paint15_linear_1041_2565" x1="1137.97" y1="114.148" x2="1264.35" y2="74.727" gradientUnits="userSpaceOnUse">
<stop stop-color="#C92424"/>
<stop offset="1" stop-color="#FFDAB2"/>
</linearGradient>
<linearGradient id="paint16_linear_1041_2565" x1="1119.97" y1="123.148" x2="1246.35" y2="83.727" gradientUnits="userSpaceOnUse">
<stop stop-color="#C92424"/>
<stop offset="1" stop-color="#FFDAB2"/>
</linearGradient>
<linearGradient id="paint17_linear_1041_2565" x1="1095.97" y1="129.148" x2="1222.35" y2="89.727" gradientUnits="userSpaceOnUse">
<stop stop-color="#C92424"/>
<stop offset="1" stop-color="#FFDAB2"/>
</linearGradient>
<clipPath id="clip0_1041_2565">
<rect width="1320" height="567" fill="white"/>
</clipPath>
</defs>
</svg>
