<svg width="14" height="14" viewBox="0 0 14 14" fill="none" xmlns="http://www.w3.org/2000/svg">
<path d="M9.91667 0C9.275 0 8.75 0.525 8.75 1.16667V4.96175C8.75 5.135 8.89122 5.25 9.03939 5.25C9.10997 5.25 9.18271 5.22347 9.24105 5.16455L10.3223 4.08333H12.8333C13.475 4.08333 14 3.55833 14 2.91667V1.16667C14 0.525 13.475 0 12.8333 0H9.91667ZM9.91667 1.16667H12.8333V2.91667H10.3223H9.91667V1.16667ZM2.33333 2.33333C1.68992 2.33333 1.16667 2.85658 1.16667 3.5V9.33333C1.16667 9.97675 1.68992 10.5 2.33333 10.5H0.583333C0.261333 10.5 0 10.7613 0 11.0833C0 11.4053 0.261333 11.6667 0.583333 11.6667H13.4167C13.7387 11.6667 14 11.4053 14 11.0833C14 10.7613 13.7387 10.5 13.4167 10.5H11.6667C12.3101 10.5 12.8333 9.97675 12.8333 9.33333V5.25H11.6667L11.6678 9.33333H2.33333V3.5H7.58333V2.33333H2.33333Z" fill="#0071EF"/>
</svg>
